<svg xmlns="http://www.w3.org/2000/svg" height="512pt" version="1.1" viewBox="0 -136 512 512" width="512pt">
<g id="surface1">
<path d="M 264.015625 7.5 C 255.160156 7.5 247.984375 14.679688 247.984375 23.53125 L 247.984375 55.597656 L 280.050781 55.597656 L 280.050781 23.53125 C 280.046875 14.679688 272.871094 7.5 264.015625 7.5 Z M 264.015625 7.5 " style=" stroke:none;fill-rule:nonzero;fill:rgb(90.196078%,39.215686%,43.137255%);fill-opacity:1;" />
<path d="M 376.242188 103.695312 L 313.210938 47.664062 C 307.339844 42.445312 299.757812 39.566406 291.90625 39.566406 L 150.507812 39.566406 C 141.144531 39.566406 132.261719 43.644531 126.171875 50.75 C 115.972656 62.648438 100.257812 80.980469 92.429688 90.113281 C 89.382812 93.664062 84.964844 95.675781 80.285156 95.675781 L 23.53125 95.675781 C 14.679688 95.675781 7.5 102.855469 7.5 111.710938 L 7.5 177.519531 C 7.5 185.691406 13.644531 192.554688 21.761719 193.453125 L 79.644531 199.886719 L 496.484375 199.886719 C 500.910156 199.886719 504.5 196.296875 504.5 191.871094 L 504.5 127.742188 C 504.5 127.742188 472.433594 111.710938 376.242188 103.695312 Z M 376.242188 103.695312 " style=" stroke:none;fill-rule:nonzero;fill:rgb(92.941176%,92.156863%,92.941176%);fill-opacity:1;" />
<path d="M 376.242188 103.695312 L 376.242188 167.824219 L 151.789062 167.824219 L 151.789062 87.660156 L 175.839844 39.566406 L 150.503906 39.566406 C 141.144531 39.566406 132.261719 43.644531 126.171875 50.75 C 115.972656 62.644531 100.257812 80.980469 92.429688 90.113281 C 89.382812 93.664062 84.964844 95.675781 80.285156 95.675781 L 23.53125 95.675781 C 14.679688 95.675781 7.5 102.855469 7.5 111.710938 L 7.5 177.519531 C 7.5 185.691406 13.644531 192.554688 21.761719 193.457031 L 79.644531 199.886719 L 496.484375 199.886719 C 500.910156 199.886719 504.5 196.296875 504.5 191.871094 L 504.5 127.742188 C 504.5 127.742188 472.433594 111.710938 376.242188 103.695312 Z M 376.242188 103.695312 " style=" stroke:none;fill-rule:nonzero;fill:rgb(36.470588%,32.54902%,37.647059%);fill-opacity:1;" />
<path d="M 440.371094 199.886719 L 496.484375 199.886719 C 500.910156 199.886719 504.5 196.296875 504.5 191.871094 L 504.5 159.804688 L 440.371094 159.804688 Z M 440.371094 199.886719 " style=" stroke:none;fill-rule:nonzero;fill:rgb(29.411765%,24.705882%,30.588235%);fill-opacity:1;" />
<path d="M 376.242188 103.695312 L 376.242188 127.742188 C 472.4375 135.757812 504.5 151.789062 504.5 151.789062 L 504.5 127.742188 C 504.5 127.742188 472.433594 111.710938 376.242188 103.695312 Z M 376.242188 103.695312 " style=" stroke:none;fill-rule:nonzero;fill:rgb(43.529412%,39.607843%,44.313725%);fill-opacity:1;" />
<path d="M 21.761719 193.457031 L 79.644531 199.886719 L 87.660156 199.886719 L 87.660156 159.804688 L 7.5 159.804688 L 7.5 177.519531 C 7.5 185.691406 13.644531 192.554688 21.761719 193.457031 Z M 21.761719 193.457031 " style=" stroke:none;fill-rule:nonzero;fill:rgb(29.411765%,24.705882%,30.588235%);fill-opacity:1;" />
<path d="M 126.171875 50.75 C 115.972656 62.644531 100.257812 80.980469 92.429688 90.113281 C 89.382812 93.664062 84.964844 95.675781 80.285156 95.675781 L 23.53125 95.675781 C 14.679688 95.675781 7.5 102.855469 7.5 111.710938 L 152.105469 111.710938 C 152.761719 104.578125 154.5625 97.589844 157.539062 91.046875 L 180.941406 39.5625 L 150.507812 39.5625 C 141.144531 39.566406 132.261719 43.644531 126.171875 50.75 Z M 126.171875 50.75 " style=" stroke:none;fill-rule:nonzero;fill:rgb(43.529412%,39.607843%,44.313725%);fill-opacity:1;" />
<path d="M 39.566406 159.808594 L 39.566406 143.773438 C 39.566406 134.921875 32.386719 127.742188 23.53125 127.742188 L 7.5 127.742188 L 7.5 159.808594 Z M 39.566406 159.808594 " style=" stroke:none;fill-rule:nonzero;fill:rgb(90.196078%,39.215686%,43.137255%);fill-opacity:1;" />
<path d="M 464.421875 191.871094 C 464.421875 214.007812 446.476562 231.953125 424.339844 231.953125 C 402.203125 231.953125 384.257812 214.007812 384.257812 191.871094 C 384.257812 169.734375 402.203125 151.789062 424.339844 151.789062 C 446.476562 151.789062 464.421875 169.734375 464.421875 191.871094 Z M 464.421875 191.871094 " style=" stroke:none;fill-rule:nonzero;fill:rgb(43.529412%,39.607843%,44.313725%);fill-opacity:1;" />
<path d="M 151.789062 191.871094 C 151.789062 214.007812 133.847656 231.953125 111.710938 231.953125 C 89.574219 231.953125 71.628906 214.007812 71.628906 191.871094 C 71.628906 169.734375 89.574219 151.789062 111.710938 151.789062 C 133.847656 151.789062 151.789062 169.734375 151.789062 191.871094 Z M 151.789062 191.871094 " style=" stroke:none;fill-rule:nonzero;fill:rgb(43.529412%,39.607843%,44.313725%);fill-opacity:1;" />
<path d="M 291.90625 39.566406 L 175.722656 39.566406 L 153.160156 84.921875 C 152.261719 86.722656 151.789062 88.710938 151.789062 90.726562 C 151.792969 97.886719 157.597656 103.695312 164.761719 103.695312 L 376.242188 103.695312 L 313.207031 47.664062 C 307.339844 42.445312 299.757812 39.566406 291.90625 39.566406 Z M 291.90625 39.566406 " style=" stroke:none;fill-rule:nonzero;fill:rgb(76.862745%,87.058824%,100%);fill-opacity:1;" />
<path d="M 163.761719 63.613281 L 331.152344 63.613281 L 313.210938 47.664062 C 307.339844 42.445312 299.757812 39.566406 291.90625 39.566406 L 175.722656 39.566406 Z M 163.761719 63.613281 " style=" stroke:none;fill-rule:nonzero;fill:rgb(64.705882%,80.392157%,100%);fill-opacity:1;" />
<path d="M 111.710938 176.355469 C 103.152344 176.355469 96.191406 183.316406 96.191406 191.871094 C 96.191406 200.425781 103.152344 207.386719 111.710938 207.386719 C 120.265625 207.386719 127.226562 200.425781 127.226562 191.871094 C 127.226562 183.316406 120.265625 176.355469 111.710938 176.355469 Z M 111.710938 176.355469 " style=" stroke:none;fill-rule:nonzero;fill:rgb(0%,0%,0%);fill-opacity:1;" />
<path d="M 424.339844 176.355469 C 415.78125 176.355469 408.824219 183.316406 408.824219 191.871094 C 408.824219 200.425781 415.78125 207.386719 424.339844 207.386719 C 432.894531 207.386719 439.855469 200.425781 439.855469 191.871094 C 439.855469 183.316406 432.894531 176.355469 424.339844 176.355469 Z M 424.339844 176.355469 " style=" stroke:none;fill-rule:nonzero;fill:rgb(0%,0%,0%);fill-opacity:1;" />
<path d="M 504.5 104.210938 C 500.359375 104.210938 497 107.566406 497 111.710938 L 497 116.828125 C 480.828125 111.414062 445.058594 102.066406 379.363281 96.433594 L 318.191406 42.058594 C 310.941406 35.613281 301.605469 32.0625 291.90625 32.0625 L 287.550781 32.0625 L 287.550781 23.53125 C 287.550781 10.554688 276.992188 0 264.015625 0 C 251.042969 0 240.484375 10.558594 240.484375 23.53125 L 240.484375 32.0625 L 150.507812 32.0625 C 138.941406 32.0625 127.996094 37.09375 120.476562 45.867188 L 86.734375 85.230469 C 85.132812 87.101562 82.78125 88.175781 80.285156 88.175781 L 71.625 88.175781 C 67.484375 88.175781 64.125 91.535156 64.125 95.675781 C 64.125 99.820312 67.484375 103.175781 71.625 103.175781 L 80.285156 103.175781 C 87.164062 103.175781 93.664062 100.195312 98.125 94.992188 L 131.863281 55.628906 C 136.53125 50.1875 143.324219 47.0625 150.507812 47.0625 L 163.703125 47.0625 L 146.453125 81.566406 C 145.042969 84.390625 144.296875 87.546875 144.292969 90.699219 C 144.292969 90.707031 144.289062 90.714844 144.289062 90.722656 L 144.289062 157.242188 C 135.769531 149.21875 124.308594 144.289062 111.710938 144.289062 C 101.953125 144.289062 92.871094 147.246094 85.3125 152.304688 L 47.0625 152.304688 L 47.0625 143.773438 C 47.0625 130.796875 36.507812 120.242188 23.53125 120.242188 L 15 120.242188 L 15 111.710938 C 15 107.003906 18.828125 103.175781 23.53125 103.175781 L 39.566406 103.175781 C 43.710938 103.175781 47.066406 99.820312 47.066406 95.675781 C 47.066406 91.535156 43.710938 88.175781 39.566406 88.175781 L 23.53125 88.175781 C 10.558594 88.179688 0 98.734375 0 111.710938 L 0 177.71875 C 0 189.5625 8.863281 199.601562 20.613281 201.066406 L 66.546875 206.808594 C 72.824219 225.746094 90.691406 239.449219 111.710938 239.449219 C 132.515625 239.449219 150.230469 226.023438 156.679688 207.386719 L 379.371094 207.386719 C 385.820312 226.023438 403.535156 239.449219 424.339844 239.449219 C 445.144531 239.449219 462.859375 226.023438 469.308594 207.386719 L 496.484375 207.386719 C 505.039062 207.386719 512 200.425781 512 191.871094 L 512 111.710938 C 512 107.566406 508.640625 104.210938 504.5 104.210938 Z M 497 132.746094 L 497 152.308594 L 450.734375 152.308594 C 443.175781 147.246094 434.097656 144.289062 424.339844 144.289062 C 407.175781 144.289062 392.113281 153.425781 383.742188 167.085938 L 383.742188 111.878906 C 427.675781 115.902344 456.699219 121.578125 473.601562 125.746094 C 485.242188 128.617188 492.800781 131.160156 497 132.746094 Z M 308.226562 53.269531 L 368.742188 107.0625 L 368.742188 192.386719 L 159.289062 192.386719 L 159.289062 110.429688 C 161.035156 110.914062 162.863281 111.191406 164.761719 111.191406 L 328.148438 111.191406 C 332.289062 111.191406 335.648438 107.835938 335.648438 103.691406 C 335.648438 99.550781 332.289062 96.191406 328.148438 96.191406 L 255.484375 96.191406 L 255.484375 47.0625 L 291.90625 47.0625 C 297.929688 47.066406 303.726562 49.269531 308.226562 53.269531 Z M 255.484375 23.53125 C 255.484375 18.828125 259.3125 15 264.015625 15 C 268.71875 15 272.546875 18.828125 272.546875 23.53125 L 272.546875 32.066406 L 255.484375 32.066406 Z M 159.867188 88.273438 L 180.472656 47.066406 L 240.484375 47.066406 L 240.484375 96.195312 L 164.761719 96.195312 C 161.746094 96.195312 159.289062 93.738281 159.289062 90.722656 C 159.289062 89.878906 159.492188 89.03125 159.867188 88.273438 Z M 23.53125 135.242188 C 28.238281 135.242188 32.0625 139.070312 32.0625 143.773438 L 32.0625 152.304688 L 15 152.304688 L 15 135.242188 Z M 15 177.71875 L 15 167.304688 L 70.976562 167.304688 C 66.710938 174.351562 64.230469 182.589844 64.140625 191.390625 L 22.472656 186.183594 C 18.214844 185.652344 15 182.011719 15 177.71875 Z M 111.710938 224.453125 C 93.742188 224.453125 79.128906 209.835938 79.128906 191.871094 C 79.128906 173.90625 93.742188 159.289062 111.710938 159.289062 C 129.675781 159.289062 144.289062 173.90625 144.289062 191.871094 C 144.289062 209.835938 129.675781 224.453125 111.710938 224.453125 Z M 424.339844 224.453125 C 406.375 224.453125 391.757812 209.835938 391.757812 191.871094 C 391.757812 173.90625 406.375 159.289062 424.339844 159.289062 C 442.304688 159.289062 456.921875 173.90625 456.921875 191.871094 C 456.921875 209.835938 442.304688 224.453125 424.339844 224.453125 Z M 496.484375 192.386719 L 471.90625 192.386719 C 471.90625 192.214844 471.917969 192.042969 471.917969 191.871094 C 471.917969 182.890625 469.414062 174.480469 465.070312 167.308594 L 497 167.308594 L 497 191.871094 C 497 192.15625 496.769531 192.386719 496.484375 192.386719 Z M 496.484375 192.386719 " style=" stroke:none;fill-rule:nonzero;fill:rgb(0%,0%,0%);fill-opacity:1;" />
<path d="M 176.355469 167.824219 C 176.355469 171.964844 179.714844 175.324219 183.855469 175.324219 L 344.175781 175.324219 C 348.320312 175.324219 351.675781 171.964844 351.675781 167.824219 C 351.675781 163.679688 348.320312 160.324219 344.175781 160.324219 L 183.855469 160.324219 C 179.714844 160.324219 176.355469 163.679688 176.355469 167.824219 Z M 176.355469 167.824219 " style=" stroke:none;fill-rule:nonzero;fill:rgb(0%,0%,0%);fill-opacity:1;" />
</g>
</svg>